<?xml version="1.0" standalone="no"?>
<!DOCTYPE svg PUBLIC "-//W3C//DTD SVG 20010904//EN"
 "http://www.w3.org/TR/2001/REC-SVG-20010904/DTD/svg10.dtd">
<svg version="1.0" xmlns="http://www.w3.org/2000/svg"
 width="980.000000pt" height="872.000000pt" viewBox="0 0 980.000000 872.000000"
 preserveAspectRatio="xMidYMid meet">

<g transform="translate(0.000000,872.000000) scale(0.100000,-0.100000)"
fill="#000000" stroke="none">
<path d="M2021 8694 c-138 -37 -263 -143 -327 -277 -50 -105 -57 -197 -52
-662 4 -357 6 -384 26 -446 44 -135 140 -243 267 -304 89 -43 159 -55 310 -55
199 0 311 38 422 143 63 59 105 123 135 203 22 57 22 73 26 505 3 496 1 527
-60 643 -63 120 -199 225 -328 255 -69 16 -355 13 -419 -5z m400 -237 c50 -21
116 -82 142 -131 22 -40 22 -51 25 -482 l3 -441 -33 -64 c-36 -69 -96 -119
-166 -139 -57 -15 -260 -12 -319 5 -63 19 -133 79 -164 142 -24 48 -24 50 -27
451 -2 268 0 421 8 456 22 105 95 183 198 213 64 18 283 12 333 -10z"/>
<path d="M7173 8695 c-168 -46 -307 -183 -357 -354 -22 -77 -24 -926 -1 -1010
50 -191 212 -338 409 -372 103 -18 336 -7 408 19 169 61 293 196 333 363 12
52 15 146 15 491 0 274 -4 446 -11 480 -19 91 -65 175 -138 247 -73 74 -138
113 -226 136 -78 20 -357 20 -432 0z m398 -238 c55 -23 119 -86 145 -142 24
-50 24 -51 24 -476 0 -466 -1 -474 -59 -548 -16 -20 -53 -50 -83 -66 -50 -28
-61 -30 -185 -33 -98 -3 -145 0 -186 12 -70 20 -137 79 -166 146 -21 49 -22
57 -19 498 l3 449 30 48 c36 58 95 102 162 121 65 19 284 13 334 -9z"/>
<path d="M513 7719 c-222 -38 -407 -214 -485 -459 l-23 -75 0 -3315 0 -3315
23 -75 c36 -114 86 -196 172 -281 85 -84 190 -144 310 -176 62 -17 298 -18
4390 -18 4092 0 4328 1 4390 18 226 61 404 225 477 441 l28 81 3 1350 c2 1004
-1 1357 -9 1378 -7 15 -23 37 -37 47 -47 37 -145 19 -174 -33 -10 -17 -14
-301 -18 -1372 l-5 -1350 -32 -68 c-62 -131 -183 -225 -318 -247 -84 -14
-8543 -14 -8615 0 -153 29 -279 140 -329 288 l-21 61 0 3269 c0 2976 1 3273
16 3323 31 105 85 181 169 239 79 54 121 60 430 60 277 0 283 0 316 23 67 45
70 143 6 191 -27 20 -41 21 -320 23 -161 0 -315 -3 -344 -8z"/>
<path d="M3390 7712 c-22 -10 -42 -32 -54 -56 -17 -36 -18 -43 -5 -80 9 -25
27 -49 48 -63 l34 -23 1409 0 c1548 0 1450 -4 1483 60 32 62 10 136 -49 164
-31 15 -159 16 -1433 16 -1311 0 -1400 -1 -1433 -18z"/>
<path d="M8418 7714 c-54 -29 -74 -109 -42 -163 32 -55 37 -56 349 -61 286 -5
291 -5 345 -31 30 -14 75 -46 99 -70 24 -24 56 -69 70 -99 l26 -55 0 -735 0
-735 -23 -57 c-31 -76 -108 -160 -180 -195 l-57 -28 -3910 -5 c-3767 -5 -3912
-6 -3939 -23 -15 -10 -34 -35 -43 -55 -20 -47 -5 -100 38 -136 l31 -26 3901 0
3902 0 75 21 c109 30 186 75 266 154 50 50 82 93 108 145 70 142 67 109 73
906 6 809 7 803 -64 947 -43 86 -149 197 -234 245 -109 62 -178 72 -488 72
-225 -1 -281 -4 -303 -16z"/>
</g>
</svg>
