<?xml version="1.0" standalone="no"?>
<!DOCTYPE svg PUBLIC "-//W3C//DTD SVG 20010904//EN"
 "http://www.w3.org/TR/2001/REC-SVG-20010904/DTD/svg10.dtd">
<svg version="1.0" xmlns="http://www.w3.org/2000/svg"
 width="135.000000pt" height="93.000000pt" viewBox="0 0 135.000000 93.000000"
 preserveAspectRatio="xMidYMid meet">

<g transform="translate(0.000000,93.000000) scale(0.100000,-0.100000)"
fill="#000000" stroke="none">
<path d="M387 893 c-10 -10 -8 -156 2 -172 8 -12 12 -12 25 -2 12 10 16 32 16
81 0 38 -3 75 -6 84 -6 16 -26 21 -37 9z"/>
<path d="M627 822 c-34 -33 -147 -139 -252 -237 -173 -161 -214 -210 -177
-210 7 0 123 104 258 230 136 127 252 231 260 233 12 3 84 -61 398 -356 66
-62 125 -111 130 -109 29 10 -4 48 -179 212 -104 98 -218 204 -252 237 -48 46
-68 58 -93 58 -25 0 -45 -12 -93 -58z"/>
<path d="M385 478 c-3 -7 -4 -110 -3 -228 l3 -215 115 0 115 0 3 108 3 107 99
0 99 0 3 -107 3 -108 115 0 115 0 0 225 c0 218 -1 225 -20 225 -19 0 -20 -8
-23 -208 l-2 -208 -73 3 -72 3 -3 108 -3 107 -139 0 -139 0 -3 -107 -3 -108
-72 -3 -73 -3 -2 208 c-3 189 -5 208 -21 211 -9 2 -19 -3 -22 -10z"/>
</g>
</svg>
